<svg xmlns="http://www.w3.org/2000/svg" viewBox="0 0 360 360">
  <g id="destruction">
    <g id="house">
      <polygon points="43.34 265.83 43.34 322 141.63 322 141.63 263.83 95.49 223.71 43.34 265.83" fill="none" stroke="#fff" stroke-miterlimit="10" stroke-width="5"/>
      <rect x="74.43" y="278.87" width="36.11" height="43.13" fill="none" stroke="#fff" stroke-miterlimit="10" stroke-width="5"/>
      <polygon points="29.29 247.78 95.49 195.62 157.68 247.78 141.63 263.83 95.49 223.71 43.34 263.83 29.29 247.78" fill="none" stroke="#fff" stroke-miterlimit="10" stroke-width="5"/>
    </g>
    <circle cx="122.57" cy="168.54" r="37.11" fill="none" stroke="#fff" stroke-miterlimit="10" stroke-width="5"/>
    <line x1="130.43" y1="133.07" x2="157.68" y2="51.19" fill="none" stroke="#fff" stroke-miterlimit="10" stroke-width="5"/>
    <g id="wiggles">
      <line x1="54.55" y1="155.59" x2="73.27" y2="169.63" fill="none" stroke="#fff" stroke-miterlimit="10" stroke-width="5"/>
      <line x1="54.69" y1="197.71" x2="76.69" y2="189.73" fill="none" stroke="#fff" stroke-miterlimit="10" stroke-width="5"/>
      <line x1="159.08" y1="214.8" x2="176.34" y2="230.61" fill="none" stroke="#fff" stroke-miterlimit="10" stroke-width="5"/>
      <line x1="166.15" y1="194.27" x2="189.32" y2="190.96" fill="none" stroke="#fff" stroke-miterlimit="10" stroke-width="5"/>
    </g>
    <rect id="tractor_wheels" data-name="tractor wheels" x="193.78" y="277.87" width="132.39" height="44.13" rx="7.74" fill="none" stroke="#fff" stroke-miterlimit="10" stroke-width="5"/>
    <polygon id="cab" points="239.35 276.97 238.92 223.13 281.04 195.72 307.12 195.72 307.12 258.37 291.07 258.37 291.72 276.97 239.35 276.97" fill="none" stroke="#fff" stroke-miterlimit="10" stroke-width="5"/>
    <path id="beam" d="M249.94,215.5,177,32.21s-6.09-8.14-14.19-4.07-8.11,10.18-8.11,10.18l64.87,224h20.27" fill="none" stroke="#fff" stroke-miterlimit="10" stroke-width="5"/>
    <polyline points="164.7 58.21 189.32 68.79 177.74 109.71 211 117.81 190.87 162.61 233.45 173.93 209.5 226.66 238.92 226.66" fill="none" stroke="#fff" stroke-linecap="round" stroke-linejoin="round" stroke-width="5"/>
  </g>
</svg>
