<svg xmlns="http://www.w3.org/2000/svg" viewBox="0 0 360 360">
  <g id="tree">
    <g id="tree-2" data-name="tree">
      <rect id="trunk" x="213.5" y="228.83" width="30.73" height="43.17" fill="#fff" stroke="#000" stroke-miterlimit="10" stroke-width="4"/>
      <polygon id="tree-3" data-name="tree" points="228.87 228.83 314.47 228.83 254.48 165.18 296.91 165.18 250.82 104.46 280.08 104.46 228.87 43 176.92 104.46 207.65 104.46 159.36 165.18 203.26 165.18 144 228.83 213.55 228.83 228.87 228.83" fill="#fff" stroke="#000" stroke-miterlimit="10" stroke-width="4"/>
    </g>
    <g id="tree-4" data-name="tree">
      <rect id="trunk-2" data-name="trunk" x="143.5" y="254.83" width="30.73" height="43.17" fill="#fff" stroke="#000" stroke-miterlimit="10" stroke-width="4"/>
      <polygon id="tree-5" data-name="tree" points="158.87 254.83 244.47 254.83 184.48 191.18 226.91 191.18 180.82 130.46 210.08 130.46 158.87 69 106.92 130.46 137.65 130.46 89.36 191.18 133.26 191.18 74 254.83 143.55 254.83 158.87 254.83" fill="#fff" stroke="#000" stroke-miterlimit="10" stroke-width="4"/>
    </g>
  </g>
  <g id="saw">
    <g id="blade">
      <path d="M96,206l48-48s12.49-12.47,26,0c13,12,0,26,0,26l-48,48" fill="#fff" stroke="#000" stroke-miterlimit="10" stroke-width="4"/>
      <g id="blades">
        <line x1="97.06" y1="194.93" x2="101.94" y2="199.44" fill="#fff" stroke="#000" stroke-linecap="round" stroke-linejoin="bevel" stroke-width="5"/>
        <line x1="108.06" y1="183.93" x2="112.94" y2="188.44" fill="#fff" stroke="#000" stroke-linecap="round" stroke-linejoin="bevel" stroke-width="5"/>
        <line x1="119.06" y1="172.93" x2="123.94" y2="177.44" fill="#fff" stroke="#000" stroke-linecap="round" stroke-linejoin="bevel" stroke-width="5"/>
        <line x1="129.06" y1="162.93" x2="133.94" y2="167.44" fill="#fff" stroke="#000" stroke-linecap="round" stroke-linejoin="bevel" stroke-width="5"/>
        <line x1="141.92" y1="151.1" x2="145" y2="155" fill="#fff" stroke="#000" stroke-linecap="round" stroke-linejoin="bevel" stroke-width="5"/>
        <line x1="167.72" y1="189.27" x2="171.2" y2="192.83" fill="#fff" stroke="#000" stroke-linecap="round" stroke-linejoin="bevel" stroke-width="5"/>
        <line x1="155.22" y1="201.77" x2="158.7" y2="205.33" fill="#fff" stroke="#000" stroke-linecap="round" stroke-linejoin="bevel" stroke-width="5"/>
        <line x1="143.72" y1="213.27" x2="147.2" y2="216.83" fill="#fff" stroke="#000" stroke-linecap="round" stroke-linejoin="bevel" stroke-width="5"/>
        <line x1="131.22" y1="225.77" x2="134.7" y2="229.33" fill="#fff" stroke="#000" stroke-linecap="round" stroke-linejoin="bevel" stroke-width="5"/>
        <line x1="159.83" y1="145.59" x2="159.08" y2="150.51" fill="#fff" stroke="#000" stroke-linecap="round" stroke-linejoin="bevel" stroke-width="5"/>
        <line x1="173.05" y1="151.14" x2="169.87" y2="154.96" fill="#fff" stroke="#000" stroke-linecap="round" stroke-linejoin="bevel" stroke-width="5"/>
        <line x1="181.79" y1="164.19" x2="177.13" y2="165.91" fill="#fff" stroke="#000" stroke-linecap="round" stroke-linejoin="bevel" stroke-width="5"/>
        <line x1="179.85" y1="180.72" x2="175.07" y2="179.38" fill="#fff" stroke="#000" stroke-linecap="round" stroke-linejoin="bevel" stroke-width="5"/>
      </g>
    </g>
    <path id="body_end" data-name="body end" d="M54,242.4,40,256a8.75,8.75,0,0,0,1,12l19,19s4,5,9,0,9-9.24,9-9.24" fill="#fff" stroke="#000" stroke-miterlimit="10" stroke-width="4"/>
    <path id="body" d="M62,200l20-5,39,38s8,9,0,17L93,278s-8,9-23-7-23-31-8-46,26-24,26-24" fill="#fff" stroke="#000" stroke-miterlimit="10" stroke-width="4"/>
  </g>
</svg>
