<svg xmlns="http://www.w3.org/2000/svg" viewBox="0 0 360 360">
  <g id="woman">
    <path d="M301.79,170.68c-4.9,8.16-13.46,2.86-13.46,2.86l-7.76-6.12,5.72,40.8-9-.82S270,240,269.15,244.94s-4.08,11.42-13.87,10.6-9.79-13-9.79-13l8.16-38.35h-9s-1.63,8.16-2.45,10.61-17.13,39.16-20.8,45.28-5.71,12.24-15.51,10.61-8.16-10.61-5.71-17.95l23.26-54.26L211.22,196l25.29-44.88,4.08-13-8.16,4.89s-6.52,17.95-8.16,23.66-4.08,9.8-12.24,9-9-9.79-7.34-13.87,8.57-28.15,11-31.42,29-20.8,29-20.8L256,106.81a18.36,18.36,0,1,1,16.61,5.68c6.16,4.73,5.48,6.79,5.48,6.79L287.92,147a75.53,75.53,0,0,0,9.79,8.16C302.61,158.44,306.69,162.52,301.79,170.68Z" fill="none" stroke="#fff" stroke-linecap="round" stroke-linejoin="round" stroke-width="4"/>
  </g>
  <g id="child">
    <path d="M127.87,204.7c-3.35,5.59-9.22,2-9.22,2l-5.31-4.2,3.91,27.95-6.15-.56s-5,22.36-5.59,25.71-2.79,7.83-9.5,7.27-6.71-8.94-6.71-8.94l5.59-26.27H88.74s-1.12,5.59-1.67,7.26-11.74,26.83-14.26,31-3.91,8.38-10.62,7.26-5.59-7.26-3.91-12.29L74.21,223.7,65.83,222l17.32-30.74,2.8-8.95-5.59,3.36S75.89,198,74.77,201.91s-2.8,6.7-8.39,6.14-6.14-6.7-5-9.5S67.22,179.27,68.9,177s19.84-14.25,19.84-14.25l7.78-1.84a12.59,12.59,0,1,1,11.37,3.89c4.24,3.25,3.77,4.66,3.77,4.66l6.71,19a52.59,52.59,0,0,0,6.7,5.59C128.43,196.32,131.22,199.11,127.87,204.7Z" fill="none" stroke="#fff" stroke-linecap="round" stroke-linejoin="round" stroke-width="4"/>
  </g>
  <g id="man">
    <path d="M237.33,204.14c-2.45,9-12.24,5.71-12.24,5.71l-24.48-5.71-5.71-5.71-7.35,23.66,8.16,36.72s-4.89,21.21-7.34,33.45S181,311,172.05,309.4s-6.53-18.77-6.53-18.77l7.35-33.45s-4.9-23.67-5.71-18-9,31.82-9,31.82-18.77,40.8-20.4,44.88-7.34,11.42-17.13,7.34c-7.42-3.09-5.72-11.42-1.64-21.22,2.53-6.07,20.4-45.69,20.4-45.69l6.53-27.74L159,187.82l-9,4.08S137.78,209,135.33,212.3s-7.34,7.34-14.68,3.26c-6.77-3.76-1.64-13.87-1.64-13.87s10.61-15.5,14.69-22,9-7.34,9-7.34l32.39-12.65a18.35,18.35,0,1,1,15.46,5.12l20.69,21.4,14.69,4.89C228.35,191.9,239.78,195.16,237.33,204.14Z" stroke="#fff" stroke-linejoin="round" stroke-width="4"/>
  </g>
</svg>
