<svg xmlns="http://www.w3.org/2000/svg" viewBox="0 0 360 360">
  <g id="pipeline_copy" data-name="pipeline copy">
    <g id="pipeline-links">
      <g id="pipeline-tube">
        <rect x="7.1" y="162.71" width="14.07" height="94.33" rx="2.05" fill="#fff" stroke="#000" stroke-miterlimit="10" stroke-width="3"/>
        <rect x="117.98" y="162.71" width="14.07" height="94.33" rx="2.05" fill="#fff" stroke="#000" stroke-miterlimit="10" stroke-width="3"/>
        <rect x="21.16" y="174.83" width="96.81" height="71.27" fill="#fff" stroke="#000" stroke-miterlimit="10" stroke-width="3"/>
      </g>
      <g id="pipeline-tube-2" data-name="pipeline-tube">
        <rect x="117.98" y="162.71" width="14.07" height="94.33" rx="2.05" fill="#fff" stroke="#000" stroke-miterlimit="10" stroke-width="3"/>
        <rect x="228.86" y="162.71" width="14.07" height="94.33" rx="2.05" fill="#fff" stroke="#000" stroke-miterlimit="10" stroke-width="3"/>
        <rect x="132.05" y="174.83" width="96.81" height="71.27" fill="#fff" stroke="#000" stroke-miterlimit="10" stroke-width="3"/>
      </g>
      <g id="pipeline-tube-3" data-name="pipeline-tube">
        <rect x="228.86" y="162.71" width="14.07" height="94.33" rx="2.05" fill="#fff" stroke="#000" stroke-miterlimit="10" stroke-width="3"/>
        <rect x="339.74" y="162.71" width="14.07" height="94.33" rx="2.05" fill="#fff" stroke="#000" stroke-miterlimit="10" stroke-width="3"/>
        <rect x="242.93" y="174.83" width="96.81" height="71.27" fill="#fff" stroke="#000" stroke-miterlimit="10" stroke-width="3"/>
      </g>
    </g>
  </g>
  <g id="protester">
    <circle id="head" cx="180.88" cy="130.95" r="16.46"/>
    <g id="sign">
      <rect x="115.83" y="34.54" width="62.7" height="59.57" rx="1.7" transform="translate(16.56 -29.15) rotate(11.98)"/>
      <rect x="133.7" y="82.07" width="7.36" height="52.55" rx="2" transform="translate(25.48 -26.16) rotate(11.98)"/>
      <circle id="sign-circle" cx="146.79" cy="61.58" r="16.85" stroke="#fff" stroke-miterlimit="10" stroke-width="3"/>
      <line id="sign-circle-cross" x1="135.42" y1="49.43" x2="158.94" y2="72.95" fill="none" stroke="#fff" stroke-miterlimit="10" stroke-width="3"/>
    </g>
    <path id="body" d="M164.42,166.22v42.32L156.58,276s0,7.84,7.84,7.84c9.41,0,7.84-3.14,9.41-14.11s6.27-53.3,6.27-53.3l7.84,61.14s0,7.83,9.4,6.27,6.27-14.11,6.27-14.11l-6.27-61.14V180.33s0-9.41,7.84,25.08c0,0,1.5,7.54,7.84,6.27,7.84-1.57,6.27-6.27,4.7-15.68-1.06-6.37-4.7-28.21-17.24-40.76,0,0-3.14-3.13-9.41-3.13H162.85s-11-1.57-14.1-4.7c-7.84-7.84-13.87-26.12-20.38-23.52-7.84,3.14-6.27,7.84-3.14,14.11,4.71,9.41,9.41,21.95,22,25.08S164.42,166.22,164.42,166.22Z"/>
  </g>
</svg>
