<svg id="Plastic_Bag" data-name="Plastic Bag" xmlns="http://www.w3.org/2000/svg" viewBox="0 0 360 360">
  <g id="Text">
    <path d="M137.28,179.26h-13l.39-1.63c2.53-.2,3.11-.51,3.66-2.73L133,155.83c.16-.7,0-1.17-.78-1.17-2.49,0-5.53,1.6-8.25,5.22l-1.33-.82,3.94-7.9h1.63a1,1,0,0,0,1.09.85h15.38a1.63,1.63,0,0,0,1.48-.85h1.67l1.09,7.9-1.52.47c-1.44-3.55-3.54-4.87-6-4.87a1.41,1.41,0,0,0-1.4,1.17l-4.71,19.07c-.55,2.22-.12,2.53,2.33,2.73Z" fill="#fff"/>
    <path d="M162.19,166.65c.51-1.87-.35-2.61-1.79-2.61a7.74,7.74,0,0,0-3.74,1.13L154,175.92c-.28,1.16,0,1.51,1.71,1.71l-.43,1.63H145l.42-1.63c1.79-.2,2.22-.55,2.49-1.71l4.6-18.53c.19-.82.08-1.17-.62-1.17h-1.21l.39-1.52,6.77-3.27h2.26l-2.76,11.13a14.42,14.42,0,0,1,6.22-1.83c2.89,0,6,1,4.75,6.08L166,175.92c-.28,1.16,0,1.51,1.71,1.71l-.43,1.63h-8.17Z" fill="#fff"/>
    <path d="M174.61,179.77c-2.81,0-4.75-1.52-4.75-4,0-4.71,5.72-7.2,13.23-7.36l.55-2.14c.62-2.49.19-3.27-1.48-3.27-1.32,0-2.18.62-3,2.1a4,4,0,0,1-3.54,2.34,1.93,1.93,0,0,1-2.06-2c0-2.76,3.27-4.71,9.3-4.71,3.74,0,7.86,1.37,6.62,6.31l-2.14,8.53c-.24,1.05,0,1.48.7,1.48a3.14,3.14,0,0,0,1.24-.28l-.54,2a8.37,8.37,0,0,1-4.24,1c-2,0-3.43-.54-3.43-2.33A11.36,11.36,0,0,1,174.61,179.77Zm7.94-9.15c-3.86.12-6.15,1.4-6.15,3.78,0,1.13.74,1.79,2,1.79a5.76,5.76,0,0,0,3-1.13Z" fill="#fff"/>
    <path d="M207.27,166.65c.5-1.87-.35-2.61-1.8-2.61a7.67,7.67,0,0,0-3.73,1.13l-2.65,10.75c-.27,1.16,0,1.51,1.71,1.71l-.42,1.63H190.06l.43-1.63c1.79-.2,2.22-.55,2.49-1.71l2.29-9.23c.24-.82.08-1.17-.62-1.17h-1.2l.39-1.52,6.77-3.27h2.26l-.47,1.83a14.42,14.42,0,0,1,6.23-1.83c2.88,0,6,1,4.75,6.08l-2.3,9.11c-.27,1.16,0,1.51,1.71,1.71l-.42,1.63h-8.18Z" fill="#fff"/>
    <path d="M214.27,177.63c1.79-.2,2.22-.55,2.49-1.71l4.6-18.53c.23-.82.07-1.17-.63-1.17h-1.2l.38-1.52,6.78-3.27H229l-4.44,17.91,4.16-3.27c2-1.52,2.57-2.92-.11-3.12l.39-1.63h10.12l-.43,1.63c-1.95.2-2.69.59-5.1,2.45l-2.26,1.76,3.54,8.09c.78,1.83,1.52,2.18,2.53,2.38l-.42,1.63h-7l-3.7-8.25-2.69,2.06-.7,2.85c-.27,1.16,0,1.51,1.72,1.71l-.43,1.63H213.84Z" fill="#fff"/>
    <path d="M119.65,207.05l-3.86-11.75c-.66-2-1.13-2.53-2.53-2.73l.39-1.63h12.58l-.39,1.63c-2.42.2-3.27,1.25-2.69,3.08l2.65,8.6,7.12-8.68c1.64-2,1.13-2.8-1-3l.39-1.63h8.29l-.39,1.63c-1.55.2-2.14.78-3.73,2.73l-9.78,11.79L125,213.83c-.54,2.22-.12,2.53,2.34,2.72l-.43,1.64h-13l.42-1.64c2.53-.19,3.08-.5,3.63-2.72Z" fill="#fff"/>
    <path d="M152.62,207.79c0,6.35-4.75,11-11.33,11-6,0-9.46-3.58-9.46-8.17,0-6.31,4.75-10.94,11.33-10.94C149.15,199.66,152.62,203.24,152.62,207.79Zm-5.84-2.06c0-2.26-.94-3.74-3.39-3.74-4.12,0-5.72,7.75-5.72,10.67,0,2.3.93,3.78,3.39,3.78C145.22,216.44,146.78,208.65,146.78,205.73Z" fill="#fff"/>
    <path d="M174.14,199.66h2.26l-3.78,15.18c-.27,1.17,0,1.52,1.72,1.71l-.43,1.64a55.4,55.4,0,0,0-8.37.58l.47-1.83a14.66,14.66,0,0,1-6.23,1.83c-2.88,0-6-1-4.71-6.07l1.75-7.09c.19-.81.08-1.16-.62-1.16H155l.39-1.52,6.77-3.27h2.26l-3.27,13.19c-.47,1.87.35,2.61,1.79,2.61a7.71,7.71,0,0,0,3.74-1.13l2.14-8.72c.19-.81.08-1.16-.62-1.16H167l.39-1.52Z" fill="#fff"/>
    <path d="M203,202.65c2.81,0,3.55-1.4,4.13-3.34H209l-2.3,9.34h-1.83c.39-2,.31-3.35-2.49-3.35h-4.52l-2.06,8.53c-.54,2.22-.15,2.53,2.49,2.72l-.43,1.64H184.61l.43-1.64c2.53-.19,3.15-.5,3.7-2.72l4.59-18.53c.51-2.26.08-2.53-2.38-2.73l.39-1.63h21.57l1.21,7-1.52.47c-1.6-3.46-4.24-4.87-9.07-4.87h-1.67a1.38,1.38,0,0,0-1.37,1.17l-2,7.9Z" fill="#fff"/>
    <path d="M230.58,207.79c0,6.35-4.75,11-11.33,11-6,0-9.46-3.58-9.46-8.17,0-6.31,4.75-10.94,11.33-10.94C227.12,199.66,230.58,203.24,230.58,207.79Zm-5.84-2.06c0-2.26-.93-3.74-3.38-3.74-4.13,0-5.73,7.75-5.73,10.67,0,2.3.94,3.78,3.39,3.78C223.18,216.44,224.74,208.65,224.74,205.73Z" fill="#fff"/>
    <path d="M230.23,216.55c1.79-.19,2.22-.54,2.49-1.71l2.3-9.23c.19-.81.07-1.16-.63-1.16h-1.2l.39-1.52,6.77-3.27h2.26l-.55,2.14a7.87,7.87,0,0,1,5-2.14c1.9,0,3,1,3,2.68a3.27,3.27,0,0,1-3.19,3.51c-2.37,0-1.91-2-3.19-2a3.2,3.2,0,0,0-2.42,1.33l-2.41,9.69c-.27,1.17,0,1.52,1.71,1.71l-.42,1.64H229.8Z" fill="#fff"/>
    <path d="M104.76,257.7a14.55,14.55,0,0,1-7.59-2.11l-.94,1.52H94.68l-1.52-8.8,1.52-.31c1.71,4,5,7.2,9.69,7.2,2.73,0,5-1.32,5-3.81,0-2.3-2.37-3.74-5-5.33-3.31-2-7.12-4.33-7.12-9,0-5.21,4.86-7.82,10.43-7.82a11.72,11.72,0,0,1,7,1.94l.81-1.36h1.52l1.48,7.86L117,238c-1.87-4.09-4.47-6.27-8.41-6.27-3.11,0-4.43,1.48-4.43,3.11,0,2.26,2.37,3.58,5.06,5.06,3.54,1.91,7.51,4.17,7.51,8.8C116.75,254.5,111.53,257.7,104.76,257.7Z" fill="#fff"/>
    <path d="M134.07,244.5c.51-1.87-.35-2.61-1.79-2.61a7.71,7.71,0,0,0-3.74,1.13l-2.65,10.74c-.27,1.17,0,1.52,1.72,1.72l-.43,1.63H116.86l.43-1.63c1.79-.2,2.22-.55,2.49-1.72l4.6-18.53c.19-.81.07-1.17-.63-1.17h-1.2l.39-1.51,6.77-3.27H132l-2.77,11.13a14.46,14.46,0,0,1,6.23-1.83c2.88,0,6,1,4.75,6.07l-2.29,9.11c-.28,1.17,0,1.52,1.71,1.72l-.43,1.63H131Z" fill="#fff"/>
    <path d="M163.61,246.72c0,6.34-4.75,11-11.33,11-6,0-9.46-3.59-9.46-8.18,0-6.31,4.75-10.94,11.33-10.94C160.15,238.58,163.61,242.16,163.61,246.72Zm-5.84-2.07c0-2.25-.93-3.73-3.38-3.73-4.13,0-5.73,7.74-5.73,10.66,0,2.3.94,3.78,3.39,3.78C156.22,255.36,157.77,247.57,157.77,244.65Z" fill="#fff"/>
    <path d="M161.27,262.64c1.83-.2,2.22-.55,2.53-1.67l4-16.43c.24-.82.08-1.17-.62-1.17H166l.39-1.52,6.82-3.27h2.25l-.39,1.48a8.18,8.18,0,0,1,4.68-1.48c4.08,0,6.77,3,6.77,7.32,0,6.85-4.44,11.8-10.71,11.8a9,9,0,0,1-4.78-1.21L169.92,261c-.32,1.12,0,1.47,1.67,1.67l-.39,1.63H160.88Zm10.44-9a3.58,3.58,0,0,0,2.76,1.28c4.17,0,6-5.41,6-9.58,0-2.91-1.44-3.69-3-3.69a4.42,4.42,0,0,0-3.19,1.63Z" fill="#fff"/>
    <path d="M184.24,262.64c1.83-.2,2.22-.55,2.53-1.67l4-16.43c.23-.82.08-1.17-.62-1.17H189l.39-1.52,6.81-3.27h2.26l-.39,1.48a8.15,8.15,0,0,1,4.67-1.48c4.09,0,6.77,3,6.77,7.32,0,6.85-4.43,11.8-10.7,11.8a9.06,9.06,0,0,1-4.79-1.21L192.88,261c-.31,1.12,0,1.47,1.67,1.67l-.38,1.63H183.85Zm10.43-9a3.58,3.58,0,0,0,2.77,1.28c4.16,0,6-5.41,6-9.58,0-2.91-1.44-3.69-3-3.69a4.46,4.46,0,0,0-3.19,1.63Z" fill="#fff"/>
    <path d="M209.19,255.48c1.79-.2,2.22-.55,2.49-1.72l2.3-9.22c.23-.82.07-1.17-.63-1.17h-1.2l.39-1.52,6.77-3.27h2.26l-3.78,15.18c-.27,1.17,0,1.52,1.72,1.72l-.43,1.63H208.76Zm14.29-22.66a3.42,3.42,0,0,1-3.62,3.31,3.06,3.06,0,0,1-3.27-3.12,3.35,3.35,0,0,1,3.5-3.34A3.22,3.22,0,0,1,223.48,232.82Z" fill="#fff"/>
    <path d="M237.76,244.5c.51-1.87-.35-2.61-1.79-2.61a7.74,7.74,0,0,0-3.74,1.13l-2.64,10.74c-.28,1.17,0,1.52,1.71,1.72l-.43,1.63H220.55l.43-1.63c1.79-.2,2.22-.55,2.49-1.72l2.3-9.22c.23-.82.08-1.17-.62-1.17h-1.21l.39-1.52,6.77-3.27h2.26l-.47,1.83a14.5,14.5,0,0,1,6.23-1.83c2.88,0,6,1,4.75,6.07l-2.29,9.11c-.28,1.17,0,1.52,1.71,1.72l-.43,1.63h-8.17Z" fill="#fff"/>
    <path d="M257.34,238.58c.66-4,3.31-6.54,5.53-6.54,1.32,0,2.33.66,2.33,2a2.45,2.45,0,0,1-2.37,2.33c-1.36.24-2.76.78-3.12,2.53,3.2.74,5.3,2.88,5.3,5.41,0,4.36-3.31,7.52-9.15,7.52-2.72,0-3.15-.74-4.63-.74-1,0-1.68.46-1.68,1.09,0,.89,1,1.17,6.08,1.32s7,1.75,7,4.67c0,4.48-4.71,6.7-10.62,6.7-4.21,0-8.68-1-8.68-4.09,0-1.79,1.2-2.8,2.84-3.39a3.24,3.24,0,0,1-1.4-2.92c0-2.53,2.57-4.36,5-4.82a5,5,0,0,1-1.6-3.55c0-4.36,3.31-7.51,9.11-7.51ZM247.1,260.27c0,1.24,1.64,2.29,5.14,2.29,3.66,0,4.91-1.21,4.91-2.26s-.82-1.24-3.94-1.36a35.09,35.09,0,0,1-4.4-.43C247.68,258.86,247.1,259.49,247.1,260.27Zm12.5-16.74c0-1.87-.94-2.65-2.3-2.65-2.53,0-3.78,3.46-3.78,6,0,1.83.94,2.61,2.3,2.61C258.39,249.52,259.6,246.06,259.6,243.53Z" fill="#fff"/>
    <path d="M149.9,268.78l-.39,1.64c-1.6.19-2.42.7-3.51,2.72L133.39,296h-4.67l-.94-17.33L118.25,296h-4.67L112.29,273c-.08-1.91-.7-2.34-2-2.53l.42-1.64h12.19l-.43,1.64c-2.49.19-3.39.58-3.27,2.49l.86,14.4,7.47-13.5,0-.86c-.15-1.91-.58-2.34-2.06-2.53l.43-1.64H138l-.38,1.64c-2.34.19-3.39.58-3.24,2.49l.86,14.37L143,273.14c1.1-2.06.51-2.53-1.79-2.72l.39-1.64Z" fill="#fff"/>
    <path d="M144,294.4c1.79-.19,2.22-.55,2.49-1.71l2.3-9.23c.23-.82.08-1.17-.62-1.17H147l.39-1.51,6.77-3.27h2.26l-3.77,15.18c-.28,1.16,0,1.52,1.71,1.71L153.9,296H143.58Zm14.29-22.66a3.4,3.4,0,0,1-3.62,3.31,3.07,3.07,0,0,1-3.27-3.11,3.35,3.35,0,0,1,3.5-3.35A3.23,3.23,0,0,1,158.3,271.74Z" fill="#fff"/>
    <path d="M163.16,296.58c-4,0-5.68-1.44-4.71-5.33l2.65-10.67H159l.35-1.52a12.84,12.84,0,0,0,7.71-6.85h2.26l-1.48,5.88H172l-.62,2.49h-4.21l-2.68,10.71c-.47,1.9.08,2.64,1.4,2.64a7.76,7.76,0,0,0,2.3-.39l-.63,2.38A17.07,17.07,0,0,1,163.16,296.58Z" fill="#fff"/>
    <path d="M186.21,283.42c.5-1.87-.35-2.61-1.79-2.61a7.71,7.71,0,0,0-3.74,1.13L178,292.69c-.27,1.16,0,1.52,1.72,1.71l-.43,1.64H169l.43-1.64c1.79-.19,2.22-.55,2.49-1.71l4.6-18.53c.19-.82.07-1.17-.63-1.17h-1.2l.38-1.52,6.78-3.27h2.26l-2.77,11.13a14.45,14.45,0,0,1,6.23-1.82c2.88,0,6,1,4.75,6.07l-2.3,9.11c-.27,1.16,0,1.52,1.72,1.71l-.43,1.64h-8.18Z" fill="#fff"/>
    <path d="M219.45,293.82c4,0,6.15-2.22,7.12-6.15l3.62-14.53c.51-2.25,0-2.53-2.41-2.72l.39-1.64h9.15l-.39,1.64c-2.57.19-3.15.47-3.66,2.72l-3.62,14.53c-1.48,6-5,8.95-11.52,8.95-7.28,0-12.77-3.08-10.79-11l3.12-12.5c.5-2.25.07-2.53-2.34-2.72l.39-1.64h13l-.39,1.64c-2.57.19-3.15.47-3.66,2.72L214,287.31C212.83,292,215.4,293.82,219.45,293.82Z" fill="#fff"/>
    <path d="M250.24,290c0,4.13-4,6.62-8.64,6.62a10.85,10.85,0,0,1-6.12-1.79l-.7,1.21H233.3l-.54-6.9,1.36-.23a8.06,8.06,0,0,0,7.2,5.41c1.79,0,3.12-.82,3.12-2.29s-1.64-2-3.55-2.65c-3-1.13-5.95-2.34-5.95-5.76,0-3.59,3.43-6.11,8.17-6.11a7.61,7.61,0,0,1,5.14,1.67l.7-1.09h1.44l.43,6.07-1.55.16c-1.17-3-3.63-4.64-5.73-4.64-1.63,0-2.53.9-2.53,2s1.4,1.83,3.12,2.45C247.32,285.37,250.24,286.54,250.24,290Z" fill="#fff"/>
  </g>
  <path id="Outline" d="M89.21,38S61.49,135.31,60.9,226.72c-.39,60.2-8.25,88.47,28.31,93.18s193.44,0,193.44,0,29.49,0,27.13-53.07S299.16,138.26,280.29,42.72l-42.46,5.9L239,106.41S234.29,130,208.34,130s-59-1.18-59-1.18-23.59-7.07-21.24-27.13,2.36-54.25,2.36-54.25Z" fill="none" stroke="#fff" stroke-miterlimit="10" stroke-width="5"/>
</svg>
