<svg xmlns="http://www.w3.org/2000/svg" viewBox="0 0 360 360">
  <g id="Layer_3" data-name="Layer 3">
    <rect width="360" height="360"/>
  </g>
  <g id="flame_copy" data-name="flame copy">
    <path d="M120,186l30-10s22.5-40.5,13.5-63.5-9-33-5-50c0,0-24,12-22,39,0,0-24-23-26-44s-1-30,5-45c0,0-19,4-27,33s1,31,1,53S85,112,85,112,84,79,60,70c0,0,6.84,18.22,5.5,44.5C64,144,95,174,113,173,116,172.83,120,186,120,186Z" stroke="#fff" stroke-linecap="round" stroke-linejoin="round" stroke-width="4"/>
  </g>
  <g id="flame_copy_2" data-name="flame copy 2">
    <path d="M196.8,162l30.71,7.55s40.63-22.25,45.3-46.5,10-32.72,22.45-45c0,0-26.71-2.66-39.42,21.25,0,0-8-32.26,1.49-51.09s15.16-25.91,28.24-35.39c0,0-18.21-6.76-40.45,13.5s-15.69,26.75-27.43,45.36-11,9-11,9S223.44,52.24,208,31.83c0,0-3.94,19.05-19.1,40.57-17,24.15-6.79,66.06,9,74.82C200.44,148.67,196.8,162,196.8,162Z" stroke="#fff" stroke-linecap="round" stroke-linejoin="round" stroke-width="4"/>
  </g>
  <g id="tree_copy" data-name="tree copy">
    <g id="tree">
      <rect id="trunk" x="103.3" y="278.85" width="30.73" height="43.17" fill="none" stroke="#fff" stroke-miterlimit="10" stroke-width="5"/>
      <polygon id="tree-2" data-name="tree" points="118.67 278.85 204.27 278.85 144.28 215.2 186.71 215.2 140.62 154.47 169.88 154.47 118.67 93.01 66.72 154.47 97.45 154.47 49.16 215.2 93.06 215.2 33.8 278.85 103.35 278.85 118.67 278.85" stroke="#fff" stroke-linecap="round" stroke-linejoin="round" stroke-width="5"/>
    </g>
  </g>
  <g id="tree_copy_2" data-name="tree copy 2">
    <g id="tree-3" data-name="tree">
      <rect id="trunk-2" data-name="trunk" x="223.3" y="249.85" width="30.73" height="43.17" fill="none" stroke="#fff" stroke-miterlimit="10" stroke-width="5"/>
      <polygon id="tree-4" data-name="tree" points="238.67 249.85 324.27 249.85 264.28 186.2 306.71 186.2 260.62 125.47 289.88 125.47 238.67 64.01 186.72 125.47 217.45 125.47 169.16 186.2 213.06 186.2 153.8 249.85 223.35 249.85 238.67 249.85" stroke="#fff" stroke-linecap="round" stroke-linejoin="round" stroke-width="5"/>
    </g>
  </g>
  <g id="flame">
    <path d="M180,186l30-10s22.5-40.5,13.5-63.5-9-33-5-50c0,0-24,12-22,39,0,0-24-23-26-44s-1-30,5-45c0,0-19,4-27,33s1,31,1,53-4,26-4,26S144,79,120,70c0,0,12,19,5.5,44.5C119.31,138.8,123,181,141,180,144,179.83,180,186,180,186Z" stroke="#fff" stroke-linecap="round" stroke-linejoin="round" stroke-width="4"/>
  </g>
  <g id="flame_copy_3" data-name="flame copy 3">
    <path d="M179.8,207.08l19.4-6.46s14.55-26.19,8.73-41.07-5.82-21.34-3.23-32.33c0,0-15.52,7.76-14.23,25.22,0,0-15.52-14.87-16.81-28.45s-.65-19.4,3.23-29.1c0,0-12.29,2.58-17.46,21.34s.65,20,.65,34.27-2.59,16.81-2.59,16.81-1-29.42-16.49-35.24a39.27,39.27,0,0,1,3.56,28.78c-4,15.71-1.62,43,10,42.35C156.52,203.1,179.8,207.08,179.8,207.08Z" stroke="#fff" stroke-linecap="round" stroke-linejoin="round" stroke-width="4"/>
  </g>
  <g id="tree-5" data-name="tree">
    <g id="tree-6" data-name="tree">
      <rect id="trunk-3" data-name="trunk" x="163.3" y="298.85" width="30.73" height="43.17" fill="none" stroke="#fff" stroke-miterlimit="10" stroke-width="5"/>
      <polygon id="tree-7" data-name="tree" points="178.67 298.85 264.27 298.85 204.28 235.2 246.71 235.2 200.62 174.47 229.88 174.47 178.67 113.01 126.72 174.47 157.45 174.47 109.16 235.2 153.06 235.2 93.8 298.85 163.35 298.85 178.67 298.85" stroke="#fff" stroke-linecap="round" stroke-linejoin="round" stroke-width="5"/>
    </g>
  </g>
</svg>
