<svg id="Layer_2_copy" data-name="Layer 2 copy" xmlns="http://www.w3.org/2000/svg" viewBox="0 0 792 345.18">
  <polyline points="-13.5 78.39 -74.88 107.75 -9.09 90.39 -70.47 119.75 -4.68 102.39 -66.06 131.76 -20.91 94.11 -8.92 151.64 -38.84 90.53 1.98 144.97 -27.94 83.85 12.89 138.28 21.3 79.2 -33.74 103.69 30.11 127.22 -37.04 116.22 26.81 139.76 -40.35 128.77 16.38 121.53 1.2 176.53 -0.47 108.5 14.02 174.99 12.35 106.96 26.85 173.45 57.28 120.08 -3.71 128.81 52.97 166.49 -9.84 140.27 46.84 177.95 -15.97 151.75 39.54 155.48 18.96 206.97 22.08 138.99 31.88 206.33 35 138.35 44.81 205.69 77.61 152.48 16.03 163.65 75.23 197.22 10.73 175.51 69.93 209.08 5.43 187.39 59.57 185.28 49.22 237.93 36.7 171.04 61.57 234.38 49.06 167.49 73.93 230.83 90.92 169.27 37.01 203.49 104.85 208.8 37.22 216.34 105.06 221.66 37.43 229.22 82.65 203.14 101.68 251.59 53.34 203.69 109.82 241.66 61.48 193.76 117.96 231.71 95.81 171.4 73.7 231.71 130.18 193.74 81.84 241.64 138.32 203.68 89.99 251.59 109.13 203.1 154.24 229.22 86.61 221.67 154.45 216.37 86.82 208.81 154.66 203.49 100.71 169.31 117.73 230.83 142.6 167.49 130.08 234.37 154.95 171.03 142.44 237.92 132.16 185.2 186.25 187.39 121.74 209.09 180.95 175.53 116.44 197.23 175.64 163.66 114.02 152.54 146.85 205.68 156.66 138.34 159.77 206.32 169.58 138.98 172.7 206.96 152.17 155.42 207.65 151.75 144.84 177.96 201.52 140.29 138.71 166.5 195.38 128.82 134.34 120.15 164.82 173.45 179.31 106.96 177.63 174.99 192.13 108.5 190.47 176.53 175.33 121.48 232.02 128.77 164.87 139.77 228.72 116.24 161.56 127.23 225.42 103.7 170.29 79.26 178.77 138.28 219.6 83.84 189.67 144.95 230.5 90.52 200.59 151.63 212.63 94.09 257.73 131.77 196.35 102.41 262.14 119.77 200.75 90.41 266.55 107.76 236.9 56.2 207.37 107.75 273.17 90.39 211.78 119.75 277.57 102.39 216.19 131.76 261.35 94.11 273.33 151.64 243.41 90.53 284.23 144.96 254.32 83.85 295.15 138.28 303.56 79.2 248.51 103.69 312.37 127.22 245.21 116.22 309.06 139.76 241.91 128.77 298.64 121.53 283.45 176.53 281.79 108.5 296.27 174.99 294.61 106.96 309.1 173.45 339.54 120.08 278.55 128.81 335.22 166.49 272.42 140.27 329.09 177.95 266.28 151.75 321.8 155.48 301.22 206.97 304.33 138.99 314.14 206.33 317.25 138.35 327.07 205.69 359.87 152.48 298.29 163.65 357.49 197.22 292.99 175.52 352.19 209.08 287.69 187.39 341.83 185.28 331.48 237.93 318.96 171.04 343.83 234.38 331.31 167.49 356.19 230.83 373.18 169.27 319.26 203.49 387.11 208.8 319.48 216.35 387.32 221.66 319.69 229.22 364.91 203.14 383.94 251.59 335.6 203.69 392.07 241.66 343.74 193.76 400.22 231.71 378.06 171.4 355.96 231.71 412.43 193.74 364.1 241.64 420.57 203.68 372.25 251.59 391.39 203.1 436.5 229.22 368.87 221.67 436.71 216.37 369.08 208.81 436.92 203.49 382.96 169.31 399.99 230.83 424.86 167.49 412.34 234.37 437.21 171.03 424.7 237.92 414.42 185.2 468.5 187.39 404 209.09 463.2 175.53 398.7 197.23 457.9 163.66 396.28 152.54 429.11 205.68 438.92 138.34 442.03 206.32 451.84 138.98 454.96 206.96 434.43 155.42 489.9 151.75 427.1 177.96 483.78 140.29 420.97 166.5 477.64 128.82 416.6 120.15 447.07 173.45 461.56 106.96 459.89 174.99 474.38 108.5 472.72 176.53 457.59 121.48 514.28 128.77 447.12 139.77 510.98 116.24 443.82 127.23 507.67 103.7 452.55 79.26 461.03 138.28 501.86 83.84 471.93 144.95 512.76 90.52 482.84 151.63 494.89 94.09 539.99 131.77 478.6 102.41 544.39 119.77 483.01 90.41 548.81 107.76 519.16 56.2 489.63 107.75 555.42 90.39 494.04 119.75 559.83 102.39 498.45 131.76 543.61 94.11 555.59 151.64 525.67 90.53 566.49 144.96 536.58 83.85 577.41 138.28 585.82 79.19 530.77 103.69 594.63 127.22 527.47 116.22 591.33 139.75 524.17 128.77 580.9 121.53 565.71 176.53 564.05 108.5 578.53 174.99 576.87 106.96 591.36 173.45 621.8 120.08 560.81 128.81 617.48 166.49 554.68 140.28 611.35 177.95 548.54 151.75 604.06 155.48 583.48 206.97 586.59 138.99 596.4 206.33 599.51 138.35 609.33 205.69 642.13 152.48 580.55 163.65 639.75 197.21 575.25 175.52 634.45 209.08 569.95 187.39 624.09 185.28 613.74 237.93 601.22 171.04 626.09 234.38 613.57 167.49 638.45 230.83 655.44 169.27 601.53 203.49 669.37 208.8 601.74 216.35 669.58 221.66 601.95 229.22 647.17 203.14 666.2 251.59 617.86 203.69 674.34 241.66 626 193.76 682.48 231.71 660.33 171.4 638.22 231.71 694.7 193.74 646.36 241.64 702.84 203.68 654.51 251.59 673.65 203.1 718.76 229.22 651.13 221.67 718.97 216.37 651.35 208.81 719.19 203.5 665.23 169.31 682.25 230.83 707.12 167.49 694.6 234.37 719.48 171.03 706.96 237.92 696.69 185.2 750.77 187.4 686.27 209.09 745.47 175.53 680.97 197.23 740.17 163.66 678.55 152.54 711.37 205.68 721.18 138.34 724.29 206.32 734.1 138.98 737.22 206.96 716.7 155.42 772.17 151.75 709.37 177.96 766.04 140.29 703.24 166.5 759.91 128.82 698.87 120.15 729.34 173.45 743.83 106.96 742.16 174.99 756.65 108.5 754.99 176.53 739.86 121.48 796.55 128.78 729.39 139.76 793.25 116.24 726.09 127.23 789.94 103.7 734.82 79.26 743.3 138.28 784.13 83.84 754.2 144.95 795.03 90.52 765.11 151.63 777.16 94.09 822.26 131.77 760.87 102.41 826.66 119.77 765.28 90.41 831.08 107.76 769.7 78.39" fill="none" stroke="#fff" stroke-miterlimit="10" stroke-width="2"/>
</svg>
