<svg id="destruction" xmlns="http://www.w3.org/2000/svg" viewBox="0 0 360 360">
  <g id="house">
    <polygon points="46.43 268.28 46.43 322 140.44 322 140.44 266.36 96.32 227.99 46.43 268.28" fill="none" stroke="#fff" stroke-miterlimit="10" stroke-width="5"/>
    <rect x="76.17" y="280.75" width="34.54" height="41.25" fill="none" stroke="#fff" stroke-miterlimit="10" stroke-width="5"/>
    <polygon points="33 251.01 96.32 201.13 155.79 251.01 140.44 266.36 96.32 227.99 46.43 266.36 33 251.01" fill="none" stroke="#fff" stroke-miterlimit="10" stroke-width="5"/>
  </g>
  <circle cx="122.22" cy="175.22" r="35.5" fill="none" stroke="#fff" stroke-miterlimit="10" stroke-width="5"/>
  <line x1="129.73" y1="141.29" x2="155.79" y2="62.98" fill="none" stroke="#fff" stroke-miterlimit="10" stroke-width="5"/>
  <g id="wiggles">
    <line x1="57.16" y1="162.83" x2="75.06" y2="176.26" fill="none" stroke="#fff" stroke-miterlimit="10" stroke-width="5"/>
    <line x1="57.29" y1="203.12" x2="78.34" y2="195.49" fill="none" stroke="#fff" stroke-miterlimit="10" stroke-width="5"/>
    <line x1="157.13" y1="219.47" x2="173.64" y2="234.59" fill="none" stroke="#fff" stroke-miterlimit="10" stroke-width="5"/>
    <line x1="163.9" y1="199.83" x2="186.06" y2="196.66" fill="none" stroke="#fff" stroke-miterlimit="10" stroke-width="5"/>
  </g>
  <rect id="tractor_wheels" data-name="tractor wheels" x="190.33" y="279.79" width="126.63" height="42.21" rx="7.74" fill="none" stroke="#fff" stroke-miterlimit="10" stroke-width="5"/>
  <polygon id="cab" points="233.91 278.93 233.5 227.44 273.79 201.22 298.73 201.22 298.73 261.14 283.38 261.14 284 278.93 233.91 278.93" fill="none" stroke="#fff" stroke-miterlimit="10" stroke-width="5"/>
  <path id="beam" d="M244,220.13l-69.8-175.3s-5.81-7.79-13.57-3.9-7.75,9.74-7.75,9.74l62,214.26h19.39" fill="none" stroke="#fff" stroke-miterlimit="10" stroke-width="5"/>
  <polyline points="162.51 69.7 186.06 79.81 174.98 118.95 206.8 126.69 187.54 169.55 228.27 180.37 205.37 230.81 233.5 230.81" fill="none" stroke="#fff" stroke-linecap="round" stroke-linejoin="round" stroke-width="5"/>
</svg>
