<svg xmlns="http://www.w3.org/2000/svg" viewBox="0 0 360 360">
  <g id="tree">
    <g id="tree-2" data-name="tree">
      <rect id="trunk" x="173.5" y="244.83" width="30.73" height="43.17" fill="none" stroke="#fff" stroke-miterlimit="10" stroke-width="5"/>
      <polygon id="tree-3" data-name="tree" points="188.87 244.83 274.47 244.83 214.48 181.18 256.91 181.18 210.82 120.46 240.08 120.46 188.87 59 136.92 120.46 167.65 120.46 119.36 181.18 163.26 181.18 104 244.83 173.55 244.83 188.87 244.83" fill="none" stroke="#fff" stroke-linecap="round" stroke-linejoin="round" stroke-width="5"/>
    </g>
  </g>
  <g id="saw">
    <g id="blade">
      <path d="M118,209l48-48s12.49-12.47,26,0c13,12,0,26,0,26l-48,48" stroke="#fff" stroke-miterlimit="10" stroke-width="5"/>
      <g id="blades">
        <line x1="119.06" y1="197.93" x2="123.94" y2="202.44" stroke="#fff" stroke-linecap="round" stroke-linejoin="bevel" stroke-width="5"/>
        <line x1="130.06" y1="186.93" x2="134.94" y2="191.44" stroke="#fff" stroke-linecap="round" stroke-linejoin="bevel" stroke-width="5"/>
        <line x1="141.06" y1="175.93" x2="145.94" y2="180.44" stroke="#fff" stroke-linecap="round" stroke-linejoin="bevel" stroke-width="5"/>
        <line x1="151.06" y1="165.93" x2="155.94" y2="170.44" stroke="#fff" stroke-linecap="round" stroke-linejoin="bevel" stroke-width="5"/>
        <line x1="163.92" y1="154.1" x2="167" y2="158" stroke="#fff" stroke-linecap="round" stroke-linejoin="bevel" stroke-width="5"/>
        <line x1="189.72" y1="192.27" x2="193.2" y2="195.83" stroke="#fff" stroke-linecap="round" stroke-linejoin="bevel" stroke-width="5"/>
        <line x1="177.22" y1="204.77" x2="180.7" y2="208.33" stroke="#fff" stroke-linecap="round" stroke-linejoin="bevel" stroke-width="5"/>
        <line x1="165.72" y1="216.27" x2="169.2" y2="219.83" stroke="#fff" stroke-linecap="round" stroke-linejoin="bevel" stroke-width="5"/>
        <line x1="153.22" y1="228.77" x2="156.7" y2="232.33" stroke="#fff" stroke-linecap="round" stroke-linejoin="bevel" stroke-width="5"/>
        <line x1="181.83" y1="148.59" x2="181.08" y2="153.51" stroke="#fff" stroke-linecap="round" stroke-linejoin="bevel" stroke-width="5"/>
        <line x1="195.05" y1="154.14" x2="191.87" y2="157.96" stroke="#fff" stroke-linecap="round" stroke-linejoin="bevel" stroke-width="5"/>
        <line x1="203.79" y1="167.19" x2="199.13" y2="168.91" stroke="#fff" stroke-linecap="round" stroke-linejoin="bevel" stroke-width="5"/>
        <line x1="201.85" y1="183.72" x2="197.07" y2="182.38" stroke="#fff" stroke-linecap="round" stroke-linejoin="bevel" stroke-width="5"/>
      </g>
    </g>
    <path id="body_end" data-name="body end" d="M76,245.4,62,259a8.75,8.75,0,0,0,1,12l19,19s4,5,9,0,9-9.24,9-9.24" stroke="#fff" stroke-miterlimit="10" stroke-width="5"/>
    <path id="body" d="M84,203l20-5,39,38s8,9,0,17l-28,28s-8,9-23-7-23-31-8-46,26-24,26-24" stroke="#fff" stroke-miterlimit="10" stroke-width="5"/>
  </g>
</svg>
