<svg xmlns="http://www.w3.org/2000/svg" viewBox="0 0 360 360">
  <g id="tree">
    <g id="tree-2" data-name="tree">
      <rect id="trunk" x="173.5" y="277.83" width="30.73" height="43.17" fill="none" stroke="#fff" stroke-miterlimit="10" stroke-width="5"/>
      <polygon id="tree-3" data-name="tree" points="188.87 277.83 274.47 277.83 214.48 214.18 256.91 214.18 210.82 153.46 240.08 153.46 188.87 92 136.92 153.46 167.65 153.46 119.36 214.18 163.26 214.18 104 277.83 173.55 277.83 188.87 277.83" fill="none" stroke="#fff" stroke-linecap="round" stroke-linejoin="round" stroke-width="5"/>
    </g>
  </g>
  <g id="saw">
    <g id="blade">
      <path d="M118,242l48-48s12.49-12.47,26,0c13,12,0,26,0,26l-48,48" stroke="#fff" stroke-miterlimit="10" stroke-width="5"/>
      <g id="blades">
        <line x1="119.06" y1="230.93" x2="123.94" y2="235.44" stroke="#fff" stroke-linecap="round" stroke-linejoin="bevel" stroke-width="5"/>
        <line x1="130.06" y1="219.93" x2="134.94" y2="224.44" stroke="#fff" stroke-linecap="round" stroke-linejoin="bevel" stroke-width="5"/>
        <line x1="141.06" y1="208.93" x2="145.94" y2="213.44" stroke="#fff" stroke-linecap="round" stroke-linejoin="bevel" stroke-width="5"/>
        <line x1="151.06" y1="198.93" x2="155.94" y2="203.44" stroke="#fff" stroke-linecap="round" stroke-linejoin="bevel" stroke-width="5"/>
        <line x1="163.92" y1="187.1" x2="167" y2="191" stroke="#fff" stroke-linecap="round" stroke-linejoin="bevel" stroke-width="5"/>
        <line x1="189.72" y1="225.27" x2="193.2" y2="228.83" stroke="#fff" stroke-linecap="round" stroke-linejoin="bevel" stroke-width="5"/>
        <line x1="177.22" y1="237.77" x2="180.7" y2="241.33" stroke="#fff" stroke-linecap="round" stroke-linejoin="bevel" stroke-width="5"/>
        <line x1="165.72" y1="249.27" x2="169.2" y2="252.83" stroke="#fff" stroke-linecap="round" stroke-linejoin="bevel" stroke-width="5"/>
        <line x1="153.22" y1="261.77" x2="156.7" y2="265.33" stroke="#fff" stroke-linecap="round" stroke-linejoin="bevel" stroke-width="5"/>
        <line x1="181.83" y1="181.59" x2="181.08" y2="186.51" stroke="#fff" stroke-linecap="round" stroke-linejoin="bevel" stroke-width="5"/>
        <line x1="195.05" y1="187.14" x2="191.87" y2="190.96" stroke="#fff" stroke-linecap="round" stroke-linejoin="bevel" stroke-width="5"/>
        <line x1="203.79" y1="200.19" x2="199.13" y2="201.91" stroke="#fff" stroke-linecap="round" stroke-linejoin="bevel" stroke-width="5"/>
        <line x1="201.85" y1="216.72" x2="197.07" y2="215.38" stroke="#fff" stroke-linecap="round" stroke-linejoin="bevel" stroke-width="5"/>
      </g>
    </g>
    <path id="body_end" data-name="body end" d="M76,278.4,62,292a8.75,8.75,0,0,0,1,12l19,19s4,5,9,0,9-9.24,9-9.24" stroke="#fff" stroke-miterlimit="10" stroke-width="5"/>
    <path id="body" d="M84,236l20-5,39,38s8,9,0,17l-28,28s-8,9-23-7-23-31-8-46,26-24,26-24" stroke="#fff" stroke-miterlimit="10" stroke-width="5"/>
  </g>
</svg>
