<svg xmlns="http://www.w3.org/2000/svg" viewBox="0 0 360 360">
  <g id="ocean">
    <path id="ocean-top" d="M24,298.51c9.41,0,15.06,11.29,32,10.35s15.06-9.41,30.12-10.35,18.82,10.35,33.87,10.35,16.94-9.41,30.11-10.35,19.76,10.35,32,10.35,16-9.41,31-10.35,16.94,11.29,32,10.35,17.88-9.41,31.06-10.35,22.11,11.76,45.64,10.82" fill="none" stroke="#fff" stroke-miterlimit="10" stroke-width="5"/>
    <path id="water-wave" d="M140.21,338.5a28.84,28.84,0,0,1,22.59-10.35c18.82,0,17.88,11.29,32.93,10.35s15.06-9.41,25.41-9.41" fill="none" stroke="#fff" stroke-miterlimit="10" stroke-width="5"/>
  </g>
  <g id="glacier">
    <polyline points="105.76 304.88 104.45 271.69 98.81 264.17 108.22 248.17 89.4 239.7 95.99 224.64 79.99 220.88 79.99 200.18 96.93 142.78 128.92 118.31 150.56 69.38 183.5 79.73 189.15 122.07 216.43 147.48 242.78 139.01 257.84 175.71 296.42 211.47 279.48 222.76 283.25 239.7 271.95 243.46 278.54 255.7 266.31 265.11 269.13 284.87 266.24 301.11" fill="none" stroke="#fff" stroke-miterlimit="10" stroke-width="5"/>
    <polyline points="314.3 309.33 335 261.34 315.24 216.17 298.3 227.47 302.06 244.4 292.65 249.11 296.42 259.46 284.19 268.87 287.95 282.04 281.73 298.89" fill="none" stroke="#fff" stroke-miterlimit="10" stroke-width="5"/>
    <polyline points="30.99 301.68 32.12 229.13 67.29 210.34 66.89 232.31 80.48 234 74.28 249.25 90.31 254.38 81.81 267.13 93.63 275.77 93.16 298.04" fill="none" stroke="#fff" stroke-miterlimit="10" stroke-width="5"/>
    <polyline points="188.2 122.07 194.79 141.84 177.85 145.6 194.79 155.01 177.85 168.18 191.97 171.01 186.32 184.18" fill="none" stroke="#fff" stroke-linecap="round" stroke-linejoin="round" stroke-width="5"/>
  </g>
</svg>
