<svg xmlns="http://www.w3.org/2000/svg" viewBox="0 0 360 360">
  <g id="ocean">
    <path id="ocean-top" d="M17,283c10,0,16,12,34,11s16-10,32-11,20,11,36,11,18-10,32-11,21,11,34,11,17-10,33-11,18,12,34,11,19-10,33-11,23.5,12.5,48.5,11.5" fill="none" stroke="#fff" stroke-miterlimit="10" stroke-width="5"/>
    <path id="water-wave" d="M140.5,325.5a30.64,30.64,0,0,1,24-11c20,0,19,12,35,11s16-10,27-10" fill="none" stroke="#fff" stroke-miterlimit="10" stroke-width="5"/>
  </g>
  <g id="Layer_4" data-name="Layer 4">
    <polyline points="103.89 289.76 102.5 254.5 96.5 246.5 106.5 229.5 86.5 220.5 93.5 204.5 76.5 200.5 76.5 178.5 94.5 117.5 128.5 91.5 151.5 39.5 186.5 50.5 192.5 95.5 221.5 122.5 249.5 113.5 265.5 152.5 306.5 190.5 288.5 202.5 292.5 220.5 280.5 224.5 287.5 237.5 274.5 247.5 277.5 268.5 274.43 285.76" fill="none" stroke="#fff" stroke-miterlimit="10" stroke-width="5"/>
    <polyline points="325.5 294.5 347.5 243.5 326.5 195.5 308.5 207.5 312.5 225.5 302.5 230.5 306.5 241.5 293.5 251.5 297.5 265.5 290.89 283.4" fill="none" stroke="#fff" stroke-miterlimit="10" stroke-width="5"/>
    <polyline points="24.43 286.36 25.62 209.27 63.01 189.3 62.58 212.64 77.03 214.45 70.43 230.65 87.47 236.1 78.44 249.65 91 258.83 90.5 282.5" fill="none" stroke="#fff" stroke-miterlimit="10" stroke-width="5"/>
    <polyline points="191.5 95.5 198.5 116.5 180.5 120.5 198.5 130.5 180.5 144.5 195.5 147.5 189.5 161.5" fill="none" stroke="#fff" stroke-linecap="round" stroke-linejoin="round" stroke-width="5"/>
  </g>
</svg>
