<svg xmlns="http://www.w3.org/2000/svg" viewBox="0 0 360 360">
  <g id="backhoe">
    <path id="tractor" d="M115.71,213.65,117,221.1s-29.78,6.2-33.5,7.44S58.64,243.43,76,265.76s146.4-18.61,146.4-18.61,7.44-37.22-11.17-37.22-45.9,3.72-45.9,3.72l-1.24-9.92Z" fill="none" stroke="#fff" stroke-miterlimit="10" stroke-width="4"/>
    <path id="cab" d="M114.89,214.62,65.17,222s-5.86,1.16-6.92-6.25-5-32.06-5-32.06-.85-5.76,7.51-6.82,64.83-10.65,64.83-10.65l-1.44-39.16,53.21-9.16s25.2,36.81,30.42,73.67c0,0,1.28,7.88-6.61,9.06S114.89,214.62,114.89,214.62Z" stroke="#fff" stroke-miterlimit="10" stroke-width="4"/>
    <path id="window" d="M143.5,125.5l9,42,16,6,32.82-5.27c9.92-13.65,60.79-58.31,60.79-58.31L282,198,272,227.78l-14.89-1.24-1.24,3.73s23.57,11.16,38.46,6.2c12.29-4.1,21.09-12.41,22.33-26.06s-14.88-23.57-14.88-23.57L298.09,81.38s-13.64-21.09-17.37-28.54S272,50.36,272,50.36L254.67,76.42l1.24,2.48-70.72,53.35" fill="none" stroke="#fff" stroke-miterlimit="10" stroke-width="4"/>
  </g>
  <g id="trashdump">
    <path id="pile" d="M343,304.11s-30.68-7.11-31-8-5.11-18.46-5.11-18.46l-10.26-7.11s6.85-17,5.72-17.33-54.83-19.31-54.83-19.31l7.38-21L245,206.09,217.43,228s-13.92-15.48-28.55-.14l-16-5.26L156.92,228l-3.27,11.93-11.93,1.71s-15.06-10.8-29.83-5.69-17.47,12.79-17.47,12.79L75.24,255.1s-15.9-5.54-21.59,7.39-2,20.59-2,20.59l-8.52,8.53L19,297.15" stroke="#fff" stroke-miterlimit="10" stroke-width="4"/>
  </g>
</svg>
