<svg xmlns="http://www.w3.org/2000/svg" viewBox="0 0 360 360">
  <g id="backhoe">
    <path id="tractor" d="M107.28,231.51l1.33,8s-31.8,6.63-35.78,7.95-26.5,15.9-8,39.75,156.34-19.87,156.34-19.87,7.95-39.75-11.92-39.75-49,4-49,4L159,220.92Z" fill="none" stroke="#fff" stroke-miterlimit="10" stroke-width="4"/>
    <path id="cab" d="M106.4,232.54l-53.09,7.89s-6.26,1.23-7.39-6.67-5.29-34.25-5.29-34.25-.91-6.14,8-7.28,69.22-11.37,69.22-11.37l-1.53-41.81,56.82-9.79s26.91,39.31,32.48,78.67c0,0,1.37,8.42-7,9.67S106.4,232.54,106.4,232.54Z" stroke="#fff" stroke-miterlimit="10" stroke-width="4"/>
    <path id="window" d="M137,137.38l9.61,44.85,17.08,6.4,35-5.62c10.6-14.58,64.92-62.27,64.92-62.27l21.2,94.06-10.6,31.8-15.9-1.32-1.32,4s25.17,11.93,41.07,6.63c13.12-4.38,22.52-13.25,23.85-27.83S306,202.88,306,202.88L302,90.26S287.47,67.74,283.5,59.79s-9.28-2.65-9.28-2.65L255.67,85,257,87.61l-75.52,57" fill="none" stroke="#fff" stroke-miterlimit="10" stroke-width="4"/>
  </g>
  <g id="trashdump">
    <path id="pile" d="M350,328.11s-32.76-7.59-33.07-8.5-5.46-19.72-5.46-19.72l-11-7.58s7.32-18.2,6.11-18.51-58.55-20.63-58.55-20.63L256,230.72l-10.61-7.28L215.91,246.8s-14.87-16.53-30.49-.15L168.28,241l-17,5.76-3.49,12.74-12.74,1.82S119,249.84,103.2,255.3,84.55,269,84.55,269l-20.48,6.82s-17-5.91-23.06,7.89-2.12,22-2.12,22l-9.1,9.1L4,320.67" stroke="#fff" stroke-miterlimit="10" stroke-width="4"/>
  </g>
</svg>
