<svg id="Layer_1" data-name="Layer 1" xmlns="http://www.w3.org/2000/svg" viewBox="0 0 360 360">
  <path d="M245.31,304.9c-23.1,12.18-46.62,16.8-74.76,16.8-68.88,0-127.26-50.4-127.26-131,0-86.52,60.06-161.28,153.3-161.28,73.08,0,122.22,51.24,122.22,121.38,0,63-35.28,100-74.76,100-16.8,0-32.34-11.34-31.08-37h-1.68c-14.7,24.78-34,37-59.22,37-24.36,0-45.36-19.74-45.36-52.92,0-52.08,41.16-99.54,99.54-99.54,18.06,0,34,3.78,44.94,8.82l-14.28,76c-6.3,31.92-1.26,46.62,12.6,47,21.42.42,45.36-28.14,45.36-76.86,0-60.9-36.54-104.58-101.64-104.58-68.46,0-126,54.18-126,139.44,0,70.14,45.78,113.4,107.94,113.4,23.94,0,46.2-5,63.42-14.7Zm-23.1-181.44a72.6,72.6,0,0,0-21-2.94c-37,0-66.78,34.86-66.78,75.6,0,18.48,9.24,31.92,27.72,31.92,24.36,0,46.62-31.08,51.24-57.12Z" fill="#fff"/>
</svg>
