<svg xmlns="http://www.w3.org/2000/svg" viewBox="0 0 360 360">
  <g id="bg">
    <rect width="360" height="360"/>
  </g>
  <g id="woman">
    <path id="body" d="M262.54,78.22l-13.87,3.27s-26.52,17.54-29,20.8-9.39,27.34-11,31.42-.82,13,7.34,13.87,10.61-3.26,12.24-9,8.16-23.66,8.16-23.66l8.16-4.89-4.08,13L215.22,168l12.24,2.45L204.2,224.69c-2.45,7.34-4.08,16.32,5.71,17.95s11.84-4.49,15.51-10.61,20-42.84,20.8-45.28,2.45-10.61,2.45-10.61h9l-8.16,38.35s0,12.24,9.79,13,13.06-5.71,13.87-10.6,8.16-37.54,8.16-37.54l9,.82-5.72-40.8,7.76,6.12s8.56,5.3,13.46-2.86.82-12.24-4.08-15.5a75.53,75.53,0,0,1-9.79-8.16l-9.79-27.74s.81-2.45-7.35-8.16S262.54,78.22,262.54,78.22Z" fill="#fff" stroke="#fff" stroke-miterlimit="10"/>
    <circle id="head" cx="273.56" cy="66.39" r="18.36" fill="#fff"/>
  </g>
  <g id="woman_copy" data-name="woman copy">
    <path id="body-2" data-name="body" d="M102.24,132.54l-9.5,2.24S74.58,146.8,72.9,149s-6.43,18.73-7.55,21.52-.55,8.95,5,9.5,7.27-2.23,8.39-6.14,5.59-16.21,5.59-16.21L90,154.34l-2.8,8.95L69.83,194l8.38,1.67L62.28,232.88c-1.68,5-2.79,11.17,3.91,12.29s8.11-3.07,10.62-7.26,13.7-29.35,14.26-31,1.67-7.26,1.67-7.26h6.15L93.3,225.89s0,8.38,6.71,8.94,8.94-3.91,9.5-7.27,5.59-25.71,5.59-25.71l6.15.56-3.91-27.95,5.31,4.2s5.87,3.63,9.22-2,.56-8.38-2.8-10.62a52.59,52.59,0,0,1-6.7-5.59l-6.71-19s.56-1.68-5-5.59S102.24,132.54,102.24,132.54Z" fill="#fff" stroke="#fff" stroke-miterlimit="10"/>
    <circle id="head-2" data-name="head" cx="109.79" cy="124.44" r="12.58" fill="#fff"/>
  </g>
  <g id="man">
    <path id="body-3" data-name="body" d="M180.13,131.26l-33.45,13.06s-4.9.81-9,7.34-14.69,22-14.69,22-5.13,10.11,1.64,13.87c7.34,4.08,12.23,0,14.68-3.26S154,163.9,154,163.9l9-4.08-13.06,40.8-6.53,27.74S125.54,268,123,274.05c-4.08,9.8-5.78,18.13,1.64,21.22,9.79,4.08,15.5-3.26,17.13-7.34s20.4-44.88,20.4-44.88,8.16-26.11,9-31.82,5.71,18,5.71,18l-7.35,33.45s-2.34,17.16,6.53,18.77,13.87-4.9,16.32-17.14,7.34-33.45,7.34-33.45l-8.16-36.72,7.35-23.66,5.71,5.71,24.48,5.71s9.79,3.26,12.24-5.71-9-12.24-11.42-13.06l-14.69-4.89-23.67-24.48Z" fill="#fff"/>
    <circle id="head-3" data-name="head" cx="191.96" cy="118.61" r="18.36" fill="#fff"/>
  </g>
</svg>
