<svg id="Layer_4" data-name="Layer 4" xmlns="http://www.w3.org/2000/svg" viewBox="0 0 360 360">
  <rect id="primary_base" data-name="primary base" x="123.66" y="297.45" width="122.77" height="23.44" fill="none" stroke="#fff" stroke-miterlimit="10" stroke-width="6"/>
  <rect id="second_base" data-name="second base" x="139.29" y="279.55" width="93.76" height="17.9" fill="none" stroke="#fff" stroke-miterlimit="10" stroke-width="6"/>
  <polygon id="top_base" data-name="top base" points="212.96 123.33 159.38 123.33 159.38 88.73 212.96 96.54 212.96 123.33" fill="none" stroke="#fff" stroke-miterlimit="10" stroke-width="6"/>
  <polyline id="frame" points="150.45 277.36 170.54 123.33 199.56 123.33 218.54 278.47" fill="none" stroke="#fff" stroke-miterlimit="10" stroke-width="6"/>
  <polyline id="zag" points="171.66 277.36 212.96 239.45 159.38 214.85 207.38 188.06 168.31 160.16 202.01 143.31 171.85 126.62" fill="none" stroke="#fff" stroke-linecap="round" stroke-linejoin="round" stroke-width="6"/>
  <g id="pump">
    <rect x="68.97" y="207.04" width="40.18" height="82.59" rx="18" transform="translate(207.93 12.81) rotate(46.51)" stroke-width="6" stroke="#fff" stroke-linecap="round" stroke-linejoin="round" fill="none"/>
    <circle cx="103.16" cy="234.51" r="10.05" fill="none" stroke="#fff" stroke-linecap="round" stroke-linejoin="round" stroke-width="6"/>
    <line x1="63.39" y1="282.94" x2="50" y2="322" fill="none" stroke="#fff" stroke-linecap="round" stroke-linejoin="round" stroke-width="6"/>
    <line x1="87.95" y1="280.7" x2="100.23" y2="322" fill="none" stroke="#fff" stroke-linecap="round" stroke-linejoin="round" stroke-width="6"/>
    <line x1="91.3" y1="215.97" x2="91.3" y2="80.91" fill="none" stroke="#fff" stroke-linecap="round" stroke-linejoin="round" stroke-width="6"/>
    <path d="M267.65,99.89,61.16,76.45S70.09,44.08,127,55.24,267.65,80.91,267.65,80.91Z" fill="none" stroke="#fff" stroke-linecap="round" stroke-linejoin="round" stroke-width="6"/>
    <path d="M265.41,227.13s45.77-24.56,45.77-88.18-6.7-82.59-6.7-82.59L267.65,80.91Z" fill="none" stroke="#fff" stroke-linecap="round" stroke-linejoin="round" stroke-width="6"/>
  </g>
</svg>
