<svg xmlns="http://www.w3.org/2000/svg" viewBox="0 0 360 360">
  <g id="pipeline_copy" data-name="pipeline copy">
    <g id="pipeline-tube">
      <rect x="65.1" y="91.71" width="27.18" height="182.29" rx="2.05" fill="none" stroke="#fff" stroke-miterlimit="10" stroke-width="5"/>
      <rect x="279.37" y="91.71" width="27.18" height="182.29" rx="2.05" fill="none" stroke="#fff" stroke-miterlimit="10" stroke-width="5"/>
      <rect x="92.28" y="115.13" width="187.09" height="137.72" fill="none" stroke="#fff" stroke-miterlimit="10" stroke-width="5"/>
    </g>
  </g>
  <g id="protester">
    <circle id="head" cx="185.16" cy="145.63" r="20.19" fill="#fff" stroke="#fff" stroke-miterlimit="10"/>
    <g id="sign">
      <rect x="105.36" y="27.38" width="76.91" height="73.07" rx="1.7" transform="translate(16.4 -28.46) rotate(11.98)" fill="#fff" stroke="#fff" stroke-miterlimit="10"/>
      <rect x="127.29" y="85.68" width="9.02" height="64.46" rx="2" transform="translate(27.35 -24.79) rotate(11.98)" fill="#fff" stroke="#fff" stroke-miterlimit="10"/>
      <circle id="sign-circle" cx="143.34" cy="60.55" r="20.67" fill="#fff" stroke="#000" stroke-miterlimit="10" stroke-width="5"/>
      <line id="sign-circle-cross" x1="129.4" y1="45.65" x2="158.24" y2="74.49" fill="#fff" stroke="#000" stroke-miterlimit="10" stroke-width="5"/>
    </g>
    <path id="body" d="M165,188.9v51.91l-9.62,82.68s0,9.61,9.62,9.61c11.54,0,9.61-3.84,11.54-17.3s7.69-65.38,7.69-65.38l9.61,75s0,9.62,11.54,7.69S213,315.8,213,315.8l-7.69-75V206.2s0-11.54,9.61,30.76c0,0,1.84,9.25,9.61,7.7,9.62-1.93,7.7-7.7,5.77-19.23-1.3-7.82-5.77-34.61-21.15-50,0,0-3.84-3.85-11.53-3.85H163.05s-13.46-1.92-17.31-5.77c-9.61-9.61-17-32-25-28.84-9.61,3.85-7.69,9.61-3.84,17.31,5.77,11.53,11.54,26.91,26.92,30.76S165,188.9,165,188.9Z" fill="#fff" stroke="#fff" stroke-miterlimit="10"/>
  </g>
</svg>
