<svg xmlns="http://www.w3.org/2000/svg" viewBox="0 0 360 360">
  <g id="flame_copy" data-name="flame copy">
    <path d="M118.62,207.86l25.79-8.6s19.35-34.83,11.61-54.61-7.74-28.37-4.3-43c0,0-20.63,10.32-18.91,33.54,0,0-20.64-19.78-22.36-37.84s-.86-25.8,4.3-38.7c0,0-16.34,3.44-23.22,28.38s.86,26.66.86,45.58-3.87,11.6-3.87,11.6-.86-28.37-21.5-36.11c0,0,5.88,15.66,4.73,38.26-1.29,25.37,25.37,51.17,40.85,50.31C115.17,196.54,118.62,207.86,118.62,207.86Z" stroke="#fff" stroke-linecap="round" stroke-linejoin="round" stroke-width="4"/>
  </g>
  <g id="flame_copy_2" data-name="flame copy 2">
    <path d="M204.66,170.17l26.4,6.5s34.95-19.13,39-40,8.59-28.13,19.3-38.66c0,0-23-2.28-33.89,18.27,0,0-6.91-27.74,1.28-43.93s13-22.27,24.28-30.43c0,0-15.65-5.81-34.78,11.61s-13.49,23-23.59,39-9.47,7.76-9.47,7.76,14.42-24.46,1.09-42c0,0-3.38,16.39-16.41,34.89-14.63,20.77-5.85,56.81,7.7,64.34C207.78,158.76,204.66,170.17,204.66,170.17Z" stroke="#fff" stroke-linecap="round" stroke-linejoin="round" stroke-width="4"/>
  </g>
  <g id="tree_copy" data-name="tree copy">
    <g id="tree">
      <rect id="trunk" x="114.26" y="267.7" width="26.42" height="37.12" fill="none" stroke="#fff" stroke-miterlimit="10" stroke-width="5"/>
      <polygon id="tree-2" data-name="tree" points="127.47 267.7 201.08 267.7 149.49 212.96 185.98 212.96 146.35 160.75 171.51 160.75 127.47 107.9 82.81 160.75 109.23 160.75 67.71 212.96 105.45 212.96 54.49 267.7 114.3 267.7 127.47 267.7" stroke="#fff" stroke-linecap="round" stroke-linejoin="round" stroke-width="5"/>
    </g>
  </g>
  <g id="tree_copy_2" data-name="tree copy 2">
    <g id="tree-3" data-name="tree">
      <rect id="trunk-2" data-name="trunk" x="217.45" y="242.76" width="26.42" height="37.12" fill="none" stroke="#fff" stroke-miterlimit="10" stroke-width="5"/>
      <polygon id="tree-4" data-name="tree" points="230.66 242.76 304.27 242.76 252.68 188.03 289.17 188.03 249.53 135.81 274.7 135.81 230.66 82.96 185.99 135.81 212.42 135.81 170.89 188.03 208.64 188.03 157.68 242.76 217.49 242.76 230.66 242.76" stroke="#fff" stroke-linecap="round" stroke-linejoin="round" stroke-width="5"/>
    </g>
  </g>
  <g id="flame">
    <path d="M180.21,187.86l25.8-8.6s19.35-34.83,11.61-54.61-7.74-28.37-4.3-43c0,0-20.64,10.32-18.92,33.54,0,0-20.64-19.78-22.36-37.84s-.86-25.8,4.3-38.7c0,0-16.34,3.44-23.21,28.38s.85,26.66.85,45.58S150.55,135,150.55,135s-1.29-39.12-21.93-46.86a52.18,52.18,0,0,1,4.73,38.26c-5.33,20.9-2.15,57.19,13.33,56.33C149.25,182.55,180.21,187.86,180.21,187.86Z" stroke="#fff" stroke-linecap="round" stroke-linejoin="round" stroke-width="4"/>
  </g>
  <g id="flame_copy_3" data-name="flame copy 3">
    <path d="M180,206l16.68-5.56s12.51-22.52,7.51-35.31-5-18.35-2.78-27.81c0,0-13.35,6.68-12.23,21.69,0,0-13.35-12.79-14.46-24.47s-.56-16.68,2.78-25c0,0-10.57,2.22-15,18.35s.56,17.24.56,29.47-2.22,14.46-2.22,14.46-.84-25.3-14.18-30.31a33.76,33.76,0,0,1,3,24.75c-3.44,13.51-1.39,37,8.62,36.42C160,202.56,180,206,180,206Z" stroke="#fff" stroke-linecap="round" stroke-linejoin="round" stroke-width="4"/>
  </g>
  <g id="tree-5" data-name="tree">
    <g id="tree-6" data-name="tree">
      <rect id="trunk-3" data-name="trunk" x="165.86" y="284.9" width="26.42" height="37.12" fill="none" stroke="#fff" stroke-miterlimit="10" stroke-width="5"/>
      <polygon id="tree-7" data-name="tree" points="179.07 284.9 252.68 284.9 201.09 230.16 237.58 230.16 197.94 177.94 223.11 177.94 179.07 125.1 134.4 177.94 160.82 177.94 119.3 230.16 157.05 230.16 106.09 284.9 165.89 284.9 179.07 284.9" stroke="#fff" stroke-linecap="round" stroke-linejoin="round" stroke-width="5"/>
    </g>
  </g>
</svg>
